<?xml version="1.0" encoding="utf-8"?>
<!-- Generator: Adobe Illustrator 16.0.0, SVG Export Plug-In . SVG Version: 6.00 Build 0)  -->
<!DOCTYPE svg PUBLIC "-//W3C//DTD SVG 1.1//EN" "http://www.w3.org/Graphics/SVG/1.1/DTD/svg11.dtd">
<svg version="1.1" id="Layer_1" xmlns="http://www.w3.org/2000/svg" xmlns:xlink="http://www.w3.org/1999/xlink" x="0px" y="0px"
	 width="200px" height="70px" viewBox="0 0 200 70" enable-background="new 0 0 200 70" xml:space="preserve">
<path fill="#78BC43" d="M83.306,49.452h7.369v0.996c-1.614,0-2.144,0.296-2.144,1.118c0,0.47,0.233,1.175,0.411,1.79l3.229,10.861
	h0.06l3.022-9.805l-0.793-2.672c-0.292-0.997-0.586-1.293-2.229-1.293v-0.996h7.482v0.996c-1.612,0-2.259,0.296-2.259,1.178
	c0,0.646,0.412,1.558,0.674,2.466l3.112,10.388h0.061l3.139-10.507c0.178-0.559,0.412-1.38,0.412-2.231
	c0-0.997-0.412-1.293-2.495-1.293v-0.996h6.489v0.996c-1.794,0-2.262,0.795-2.967,3.026l-5.047,16.175h-1.001l-3.933-13.21h-0.058
	l-4.111,13.21h-0.998l-5.311-17.557c-0.413-1.324-0.706-1.645-2.116-1.645V49.452z"/>
<path fill="#78BC43" d="M112.642,51.271c0,0.94-0.764,1.643-1.644,1.643c-0.884,0-1.645-0.702-1.645-1.643
	c0-0.938,0.761-1.639,1.645-1.639C111.878,49.633,112.642,50.334,112.642,51.271 M107.709,69.649v-1.004
	c1.702,0,2.23-0.29,2.23-1.227v-9.336c0-0.938-0.528-1.232-2.23-1.232v-1l4.989-0.176v11.744c0,0.937,0.53,1.227,2.229,1.227v1.004
	H107.709z"/>
<path fill="#78BC43" d="M115.576,69.649v-1.004c1.701,0,2.233-0.29,2.233-1.227v-15.56c0-0.939-0.532-1.234-2.233-1.234v-0.992
	l4.991-0.181v17.967c0,0.937,0.529,1.227,2.231,1.227v1.004H115.576z"/>
<path fill="#78BC43" d="M123.592,69.649v-1.004c1.703,0,2.231-0.29,2.231-1.227v-15.56c0-0.939-0.528-1.234-2.231-1.234v-0.992
	l4.99-0.181v17.967c0,0.937,0.529,1.227,2.23,1.227v1.004H123.592z"/>
<path fill="#78BC43" d="M144.875,67.419c0,0.937,0.53,1.227,2.088,1.227v1.004h-4.846v-9.807c0-2.553-1.263-3.171-2.349-3.171
	c-2.173,0-3.583,2.732-3.583,4.961v5.786c0,0.937,0.529,1.227,2.292,1.227v1.004h-7.134v-1.004c1.555,0,2.084-0.29,2.084-1.227
	v-15.56c0-0.939-0.529-1.234-2.084-1.234v-0.994l4.842-0.179v8.982h0.062c0.792-1.791,2.2-2.936,4.258-2.936
	c2.081,0,4.37,1.088,4.37,5.372V67.419z"/>
<path fill="#78BC43" d="M156.535,61.666c0-2.115-0.411-5.168-3.289-5.168c-2.817,0-3.229,3.053-3.229,5.168H156.535z
	 M150.018,62.663c0,4.049,1.732,6.338,4.253,6.338c1.972,0,3.291-1.202,4.407-2.701l0.703,0.471
	c-1.322,1.937-2.934,3.229-6.076,3.229c-3.64,0-6.458-3.347-6.458-7.248c0-3.906,2.818-7.253,6.458-7.253
	c3.436,0,6.224,2.407,6.224,7.164H150.018z"/>
<path fill="#78BC43" d="M178.937,69.649v-9.835c0-2.057-0.646-3.143-2.496-3.143c-1.38,0-3.021,1.086-3.021,4.785v5.962
	c0,0.937,0.525,1.227,2.085,1.227v1.004h-4.846v-9.835c0-2.057-0.648-3.143-2.497-3.143c-1.381,0-3.021,1.086-3.021,4.785v5.962
	c0,0.937,0.524,1.227,2.289,1.227v1.004h-7.221v-1.004c1.643,0,2.173-0.29,2.173-1.227v-9.336c0-0.938-0.53-1.232-2.173-1.232v-1
	l4.755-0.176v2.642h0.061c0.641-1.703,1.907-2.817,3.756-2.817c2.17,0,3.613,0.938,4.287,3.141c0.967-2.172,2.492-3.141,4.312-3.141
	c1.85,0,4.317,0.792,4.317,4.551v7.369c0,0.937,0.525,1.227,2.143,1.227v1.004H178.937z"/>
<polygon fill="#78BC43" points="105.464,0.127 84.635,0.127 62.948,35.601 62.948,21.488 50.065,21.488 63.131,0.127 42.303,0.127 
	20.593,35.627 20.593,21.488 -0.235,21.488 -0.235,69.667 -0.224,69.667 20.593,69.667 20.609,69.667 42.117,34.488 42.113,69.667 
	62.937,69.667 62.948,69.667 62.948,69.651 "/>
</svg>
