<?xml version="1.0" encoding="utf-8"?>
<!-- Generator: Adobe Illustrator 16.0.0, SVG Export Plug-In . SVG Version: 6.00 Build 0)  -->
<!DOCTYPE svg PUBLIC "-//W3C//DTD SVG 1.1//EN" "http://www.w3.org/Graphics/SVG/1.1/DTD/svg11.dtd">
<svg version="1.1" id="Layer_1" xmlns="http://www.w3.org/2000/svg" xmlns:xlink="http://www.w3.org/1999/xlink" x="0px" y="0px"
	 width="43px" height="43px" viewBox="0 0 43 43" enable-background="new 0 0 43 43" xml:space="preserve">
<g>
	<circle fill="#FFFFFF" cx="21.669" cy="21.633" r="21.068"/>
	<g id="GuAUCA_3_">
		<g>
			<path fill="#FBBA1C" d="M20.326,0.564c0.896,0,1.789,0,2.686,0c0.068,0.019,0.135,0.042,0.203,0.051
				c0.67,0.079,1.346,0.121,2.008,0.235c3.445,0.597,6.559,1.959,9.33,4.099c0.297,0.23,0.586,0.475,0.91,0.735
				c-0.541,0.148-1.037,0.247-1.504,0.418c-0.486,0.18-0.891,0.156-1.232-0.259c-0.023-0.031-0.07-0.046-0.117-0.076
				c-0.107,0.138-0.205,0.265-0.316,0.413c0.115,0.096,0.207,0.174,0.324,0.27c-0.553,0.147-1.061,0.289-1.572,0.415
				c-0.158,0.04-0.24,0.113-0.285,0.281c-0.104,0.413-0.232,0.821-0.354,1.23c-0.16,0.537-0.32,1.073-0.488,1.626
				C29.65,9.827,29.41,9.668,29.15,9.501c-0.084,0.141-0.152,0.252-0.221,0.37c0.223,0.151,0.422,0.295,0.633,0.42
				c0.176,0.104,0.217,0.215,0.154,0.424c-0.504,1.663-0.988,3.33-1.48,4.996c-0.215,0.729-0.43,1.458-0.643,2.185
				c-0.02,0.002-0.041,0.002-0.059,0.002c-0.326-1.211-0.654-2.425-0.986-3.667c-1.15,0.306-2.277,0.605-3.457,0.92
				c0.658-2.236,1.307-4.427,1.963-6.649c-0.094,0.01-0.146,0.01-0.195,0.022c-1.723,0.462-3.442,0.929-5.165,1.385
				c-0.184,0.049-0.261,0.133-0.314,0.312c-0.885,3.02-1.779,6.036-2.671,9.053c-0.167,0.567-0.337,1.133-0.504,1.698
				c-0.016-0.001-0.032-0.002-0.048-0.004c-0.33-1.225-0.659-2.453-0.992-3.69c-1.874,0.502-3.726,1-5.605,1.502
				c1.16,4.332,2.314,8.638,3.471,12.949c0.088-0.016,0.141-0.026,0.191-0.04c1.741-0.468,3.478-0.938,5.22-1.394
				c0.191-0.05,0.234-0.167,0.278-0.317c0.882-2.991,1.763-5.982,2.646-8.975c0.164-0.557,0.327-1.112,0.491-1.668
				c0.017,0,0.033,0.001,0.049,0.001c0.834,3.112,1.667,6.221,2.499,9.33c0.061,0,0.088,0.006,0.111-0.003
				c1.775-0.475,3.551-0.947,5.32-1.431c0.096-0.026,0.203-0.149,0.234-0.248c1.016-3.417,2.02-6.836,3.029-10.253
				c0.191-0.644,0.4-1.281,0.6-1.921c0.301,0.626,0.604,1.251,0.908,1.888c0.119-0.047,0.234-0.096,0.396-0.162
				c-0.307-0.657-0.607-1.292-0.914-1.945c-0.16,0.092-0.279,0.16-0.396,0.225c0.143-0.516,0.309-1.027,0.428-1.548
				c0.084-0.378,0.242-0.687,0.586-0.883c0.014-0.005,0.016-0.031,0.01-0.017c-0.068-0.174-0.201-0.341-0.176-0.476
				c0.074-0.385,0.213-0.759,0.34-1.18c0.232,0.273,0.436,0.514,0.643,0.761c0.135-0.116,0.258-0.22,0.387-0.331
				c-0.262-0.326-0.502-0.627-0.752-0.938c0.283-0.23,0.543-0.439,0.811-0.653c0.209,0.259,0.416,0.494,0.598,0.743
				c0.115,0.163,0.234,0.198,0.406,0.107c0.08-0.041,0.166-0.068,0.271-0.111c-0.426-0.521-0.84-1.027-1.256-1.538
				c-0.223,0.175-0.424,0.333-0.621,0.489c-0.014-0.013-0.029-0.026-0.043-0.039c0.277-0.942,0.557-1.885,0.846-2.862
				c0.076,0.069,0.115,0.104,0.154,0.141c2.139,2.072,3.77,4.484,4.889,7.244c0.688,1.703,1.154,3.467,1.365,5.293
				c0.055,0.46,0.105,0.92,0.158,1.379c0,0.823,0,1.645,0,2.467c-0.016,0.089-0.043,0.176-0.049,0.265
				c-0.098,1.588-0.377,3.145-0.861,4.661c-1.842,5.773-5.473,10.032-10.881,12.765c-2.1,1.061-4.328,1.708-6.664,1.986
				c-0.459,0.055-0.92,0.105-1.379,0.158c-0.822,0-1.644,0-2.467,0c-0.061-0.014-0.12-0.036-0.182-0.043
				c-0.911-0.117-1.836-0.168-2.731-0.362c-6.625-1.441-11.526-5.171-14.675-11.176c-1.125-2.148-1.801-4.445-2.09-6.852
				c-0.053-0.432-0.104-0.863-0.157-1.293c0-0.896,0-1.791,0-2.685c0.015-0.059,0.037-0.117,0.045-0.178
				C0.815,19,0.909,17.867,1.163,16.772C2.07,12.859,3.986,9.491,6.826,6.657c1.661-1.655,3.554-2.991,5.669-4.01
				c2.065-0.995,4.235-1.645,6.512-1.923C19.447,0.67,19.887,0.618,20.326,0.564z M5.915,31.235c0.07-0.109,0.092-0.147,0.117-0.182
				c0.506-0.658,1.008-1.319,1.52-1.973c0.111-0.142,0.151-0.252,0.017-0.4c-0.092-0.099-0.158-0.221-0.25-0.351
				c-0.746,1.023-1.476,2.024-2.209,3.022c-0.093,0.128-0.143,0.22-0.028,0.377c0.116,0.156,0.215,0.218,0.403,0.154
				c0.225-0.069,0.456-0.123,0.685-0.181c0.45-0.115,0.898-0.228,1.385-0.348c-0.433,0.602-0.832,1.17-1.247,1.723
				c-0.115,0.156-0.123,0.265-0.009,0.427c0.113,0.165,0.221,0.171,0.391,0.119c1.013-0.291,2.031-0.575,3.045-0.863
				c0.167-0.047,0.333-0.101,0.515-0.155c-0.066-0.103-0.122-0.165-0.155-0.238c-0.106-0.246-0.27-0.264-0.503-0.178
				c-0.376,0.134-0.763,0.241-1.144,0.357c-0.434,0.132-0.868,0.263-1.357,0.41c0.61-0.829,1.183-1.607,1.765-2.396
				c-0.114-0.164-0.223-0.319-0.349-0.498c-0.087,0.117-0.155,0.211-0.229,0.301c-0.091,0.112-0.167,0.282-0.284,0.318
				C7.333,30.877,6.664,31.042,5.915,31.235z M2.364,23.537c0.086-0.021,0.138-0.032,0.189-0.046c1.109-0.35,2.216-0.708,3.331-1.04
				c0.236-0.07,0.268-0.195,0.288-0.403c0.023-0.232-0.152-0.223-0.27-0.271c-0.635-0.266-1.274-0.521-1.951-0.795
				c0.705-0.224,1.366-0.444,2.034-0.641c0.208-0.062,0.252-0.176,0.265-0.371c0.013-0.193-0.089-0.24-0.236-0.293
				c-0.818-0.303-1.632-0.614-2.45-0.923c-0.337-0.126-0.676-0.251-1.032-0.385c-0.006,0.105-0.001,0.181-0.016,0.25
				c-0.053,0.283,0.062,0.411,0.34,0.499c0.735,0.234,1.46,0.506,2.187,0.764c0.062,0.023,0.122,0.054,0.223,0.097
				c-0.899,0.279-1.749,0.539-2.596,0.807c-0.083,0.026-0.201,0.092-0.213,0.157c-0.033,0.155-0.012,0.322-0.012,0.547
				c0.587-0.416,1.099-0.107,1.622,0.108c0.26,0.109,0.524,0.205,0.787,0.311c0.113,0.043,0.224,0.09,0.381,0.154
				c-0.915,0.265-1.771,0.513-2.628,0.753c-0.169,0.048-0.275,0.112-0.246,0.314C2.379,23.252,2.364,23.381,2.364,23.537z
				 M27.715,36.177c-0.412-0.001-0.617,0.167-0.705,0.553c-0.137,0.586-0.334,1.159-0.508,1.75c-0.496-0.41-0.99-0.784-1.439-1.211
				c-0.291-0.275-0.551-0.275-0.885-0.084c0.336,1.177,0.674,2.359,1.016,3.562c0.201-0.058,0.373-0.106,0.574-0.165
				c-0.246-0.857-0.486-1.701-0.742-2.598c0.455,0.379,0.881,0.706,1.271,1.07c0.299,0.28,0.562,0.217,0.656-0.181
				c0.123-0.51,0.291-1.007,0.459-1.571c0.262,0.909,0.504,1.749,0.748,2.603c0.211-0.067,0.385-0.124,0.568-0.182
				C28.385,38.518,28.051,37.347,27.715,36.177z M20.097,6.102c-0.276-1.231-0.545-2.431-0.812-3.621
				c-0.398,0.008-0.621,0.131-0.728,0.513c-0.164,0.582-0.405,1.142-0.618,1.723c-0.472-0.444-0.937-0.879-1.4-1.316
				c-0.333-0.313-0.392-0.32-0.841-0.102c0.267,1.194,0.535,2.392,0.807,3.604c0.203-0.047,0.385-0.087,0.579-0.132
				C16.89,5.893,16.7,5.043,16.5,4.14c0.463,0.433,0.883,0.825,1.302,1.217c0.22,0.206,0.42,0.158,0.526-0.13
				c0.157-0.427,0.309-0.855,0.465-1.284c0.035-0.095,0.077-0.185,0.134-0.32c0.203,0.902,0.394,1.749,0.589,2.609
				C19.723,6.185,19.89,6.147,20.097,6.102z M12.744,8.86c-0.824-0.956-1.628-1.892-2.438-2.833
				c-0.171,0.149-0.31,0.272-0.454,0.396c0.35,0.411,0.678,0.795,1.017,1.195c-0.483,0.415-0.944,0.81-1.415,1.212
				C9.102,8.424,8.77,8.041,8.425,7.645C8.265,7.786,8.125,7.91,7.972,8.042c0.819,0.953,1.625,1.89,2.438,2.833
				c0.164-0.146,0.305-0.27,0.451-0.4c-0.363-0.424-0.705-0.825-1.057-1.236c0.472-0.408,0.933-0.805,1.413-1.219
				c0.358,0.414,0.708,0.816,1.07,1.233C12.44,9.121,12.576,9.005,12.744,8.86z M17.431,38.86c0.625,0.122,1.212,0.235,1.83,0.355
				c-0.099,0.541-0.196,1.063-0.296,1.604c0.203,0.036,0.386,0.071,0.589,0.108c0.234-1.224,0.464-2.428,0.702-3.659
				c-0.207-0.039-0.387-0.076-0.59-0.114c-0.103,0.524-0.2,1.021-0.302,1.537c-0.624-0.118-1.226-0.233-1.834-0.352
				c0.099-0.531,0.193-1.029,0.289-1.541c-0.211-0.038-0.394-0.073-0.589-0.11c-0.235,1.233-0.466,2.435-0.7,3.663
				c0.212,0.039,0.394,0.073,0.589,0.111C17.224,39.916,17.323,39.402,17.431,38.86z M36.578,26.363
				c1.217,0.311,2.41,0.613,3.621,0.921c0.168-0.664,0.326-1.295,0.492-1.94c-0.18-0.046-0.336-0.086-0.496-0.127
				c-0.121,0.459-0.232,0.888-0.354,1.351c-0.371-0.094-0.725-0.183-1.088-0.275c0.1-0.407,0.189-0.784,0.283-1.172
				c-0.178-0.045-0.326-0.082-0.49-0.124c-0.104,0.396-0.207,0.777-0.311,1.167c-0.348-0.09-0.662-0.172-1-0.26
				c0.066-0.279,0.131-0.544,0.193-0.807c0.104-0.423,0.07-0.481-0.371-0.626C36.898,25.094,36.742,25.715,36.578,26.363z
				 M13.71,8.3c0.599-0.311,1.178-0.613,1.777-0.925c-0.083-0.163-0.155-0.305-0.232-0.458c-0.426,0.217-0.834,0.425-1.252,0.636
				c-0.178-0.347-0.34-0.662-0.512-0.996c0.359-0.189,0.701-0.37,1.065-0.56c-0.083-0.165-0.155-0.306-0.232-0.459
				c-0.37,0.188-0.716,0.364-1.08,0.548c-0.166-0.322-0.316-0.615-0.474-0.921c0.375-0.198,0.726-0.384,1.071-0.565
				c-0.027-0.189-0.049-0.348-0.076-0.542c-0.609,0.316-1.187,0.614-1.776,0.92C12.569,6.096,13.136,7.193,13.71,8.3z
				 M21.326,40.958c0.688,0,1.336,0,1.983,0c0.047-0.533,0.047-0.527-0.428-0.51c-0.314,0.014-0.629,0.002-0.973,0.002
				c0-0.38,0-0.739,0-1.137c0.391,0,0.772,0,1.143,0c0-0.197,0-0.352,0-0.516c-0.404,0-0.783,0-1.202,0c0-0.174,0-0.338,0-0.498
				c0-0.169,0-0.338,0-0.519c0.284-0.017,0.557-0.03,0.829-0.043c0.422-0.022,0.434-0.03,0.488-0.473c-0.646,0-1.296,0-1.955,0
				C21.25,38.53,21.288,39.748,21.326,40.958z M35.176,32.271c-0.291-0.222-0.564-0.427-0.84-0.638
				c0.258-0.344,0.492-0.663,0.73-0.981c-0.105-0.158-0.199-0.295-0.307-0.451c-0.412,0.548-0.809,1.066-1.209,1.6
				c1.004,0.763,1.982,1.506,2.973,2.258c0.127-0.163,0.242-0.313,0.369-0.479c-0.438-0.334-0.861-0.659-1.299-0.99
				c0.252-0.331,0.484-0.642,0.727-0.965c-0.145-0.109-0.271-0.205-0.412-0.31C35.668,31.63,35.436,31.933,35.176,32.271z
				 M24.68,2.571c0.225,0.792,0.438,1.523,0.633,2.259c0.037,0.132,0.039,0.288,0.012,0.423c-0.084,0.407-0.189,0.81-0.293,1.244
				c0.203,0.047,0.391,0.092,0.586,0.138c0.104-0.438,0.195-0.844,0.305-1.249c0.029-0.108,0.086-0.22,0.16-0.306
				c0.232-0.268,0.48-0.522,0.723-0.785c0.289-0.32,0.582-0.641,0.879-0.97c-0.547-0.223-0.545-0.221-0.898,0.171
				c-0.316,0.35-0.633,0.7-0.959,1.063C25.67,4,25.527,3.458,25.371,2.919c-0.021-0.078-0.072-0.182-0.133-0.207
				C25.08,2.65,24.908,2.626,24.68,2.571z M30.828,5.279c0.125-0.119,0.248-0.234,0.398-0.375c-0.615-0.306-1.199-0.595-1.803-0.894
				c-0.557,1.117-1.105,2.219-1.662,3.342c0.188,0.094,0.354,0.179,0.535,0.27c0.252-0.497,0.49-0.97,0.738-1.456
				c0.375,0.184,0.721,0.355,1.08,0.532c0.076-0.163,0.145-0.309,0.219-0.461c-0.369-0.187-0.713-0.364-1.072-0.547
				c0.158-0.316,0.307-0.616,0.467-0.939C30.104,4.931,30.461,5.101,30.828,5.279z M33.014,32.482
				c-0.088,0.07-0.131,0.12-0.186,0.149c-0.277,0.146-0.293,0.361-0.219,0.638c0.125,0.473,0.219,0.951,0.334,1.469
				c-0.49-0.184-0.938-0.354-1.383-0.521c-0.447-0.164-0.594-0.112-0.867,0.302c0.721,0.262,1.439,0.516,2.156,0.783
				c0.127,0.048,0.254,0.137,0.35,0.237c0.287,0.313,0.562,0.642,0.848,0.973c0.158-0.138,0.303-0.262,0.453-0.397
				c-0.256-0.302-0.514-0.574-0.734-0.872c-0.129-0.176-0.24-0.385-0.289-0.594C33.309,33.945,33.17,33.232,33.014,32.482z
				 M35.607,29.857c0.166-0.338,0.32-0.65,0.479-0.969c0.975,0.468,1.924,0.922,2.895,1.387c0.09-0.188,0.172-0.361,0.264-0.55
				c-0.979-0.469-1.928-0.924-2.893-1.39c0.098-0.214,0.184-0.4,0.27-0.589c0.18-0.388,0.164-0.433-0.254-0.672
				c-0.406,0.85-0.811,1.696-1.223,2.557C35.311,29.712,35.439,29.774,35.607,29.857z M38.182,12.821
				c-0.965,0.492-1.906,0.977-2.859,1.466c0.096,0.194,0.18,0.362,0.271,0.543c0.967-0.494,1.912-0.976,2.865-1.461
				c0.096,0.184,0.178,0.336,0.256,0.488c0.217,0.417,0.215,0.418,0.66,0.345c0.021-0.002,0.043-0.023,0.076-0.043
				c-0.434-0.847-0.861-1.688-1.295-2.542c-0.168,0.091-0.309,0.167-0.459,0.248C37.861,12.19,38.016,12.496,38.182,12.821z
				 M37.334,20.96c-0.045,0.94-0.088,1.878-0.133,2.827c0.188,0,0.34,0,0.514,0c0.02-0.344,0.035-0.678,0.055-1.048
				c1.07,0.047,2.133,0.096,3.213,0.144c0-0.213,0-0.393,0-0.6c-1.055-0.051-2.105-0.104-3.156-0.156
				c0-0.236-0.01-0.443,0.002-0.649C37.85,21.06,37.812,21.015,37.334,20.96z M12.338,34.179c-0.699,1.049-1.38,2.069-2.072,3.109
				c0.558,0.37,1.092,0.727,1.633,1.086c0.101-0.15,0.185-0.277,0.286-0.43c-0.377-0.253-0.745-0.501-1.128-0.758
				c0.596-0.896,1.184-1.781,1.78-2.675C12.664,34.396,12.513,34.296,12.338,34.179z M9.387,11.288
				c-0.275,0.374-0.537,0.732-0.806,1.098c-0.875-0.632-1.734-1.252-2.607-1.883c-0.127,0.182-0.234,0.333-0.344,0.489
				c1.021,0.738,2.012,1.458,3.023,2.189c0.387-0.534,0.763-1.054,1.149-1.587C9.66,11.489,9.531,11.395,9.387,11.288z
				 M7.661,13.782C7.464,14.2,7.278,14.59,7.078,15.01c-0.972-0.456-1.931-0.903-2.912-1.363c-0.086,0.186-0.163,0.355-0.25,0.542
				c1.14,0.535,2.253,1.057,3.381,1.586c0.286-0.608,0.553-1.18,0.831-1.772C7.972,13.929,7.833,13.864,7.661,13.782z
				 M32.195,37.916c-0.096-0.169-0.172-0.3-0.256-0.447c-0.408,0.227-0.791,0.437-1.189,0.658c-0.535-0.945-1.051-1.862-1.58-2.798
				c-0.182,0.104-0.346,0.197-0.521,0.298c0.621,1.098,1.225,2.17,1.838,3.254C31.062,38.553,31.615,38.242,32.195,37.916z
				 M15.22,39.368c-0.433-0.191-0.836-0.37-1.245-0.549c0.434-0.999,0.853-1.963,1.281-2.948c-0.194-0.082-0.364-0.155-0.549-0.235
				c-0.5,1.149-0.991,2.278-1.49,3.424c0.616,0.267,1.195,0.52,1.795,0.779C15.084,39.675,15.146,39.533,15.22,39.368z
				 M21.352,6.125c0.675,0,1.3,0,1.951,0c0.008-0.134,0.018-0.285,0.031-0.452c-0.471-0.024-0.91-0.048-1.289-0.067
				c0-0.923-0.004-1.815,0.004-2.706c0.004-0.534,0.012-0.534-0.524-0.517c-0.008,0-0.014,0.01-0.058,0.041
				C21.43,3.62,21.392,4.845,21.352,6.125z M8.899,36.176c0.847-0.938,1.67-1.848,2.501-2.768c-0.151-0.142-0.289-0.27-0.443-0.41
				c-0.842,0.931-1.67,1.845-2.512,2.776C8.602,35.912,8.744,36.038,8.899,36.176z M6.855,17.05c-1.2-0.348-2.383-0.689-3.585-1.037
				c-0.057,0.199-0.108,0.378-0.167,0.581c1.205,0.349,2.388,0.689,3.585,1.034C6.75,17.419,6.799,17.249,6.855,17.05z
				 M5.497,26.649c-0.007-0.36-0.268-0.609-0.629-0.606c-0.38,0.002-0.662,0.284-0.651,0.649c0.01,0.342,0.297,0.61,0.641,0.602
				C5.219,27.284,5.503,26.996,5.497,26.649z M39.471,18.005c0.006-0.36-0.248-0.617-0.615-0.62
				c-0.381-0.004-0.66,0.251-0.666,0.606s0.256,0.617,0.617,0.623C39.191,18.62,39.461,18.368,39.471,18.005z M17.559,8.412
				c-0.036-0.12-0.075-0.247-0.125-0.416c-0.679,0.268-1.333,0.525-2.011,0.792c0.085,0.164,0.146,0.281,0.202,0.388
				C16.278,8.918,16.909,8.668,17.559,8.412z M9.25,14.582c-0.308,0.654-0.609,1.291-0.919,1.951
				c0.167,0.062,0.289,0.111,0.406,0.156c0.303-0.642,0.592-1.255,0.891-1.888C9.521,14.739,9.406,14.673,9.25,14.582z
				 M14.176,9.469c-0.592,0.435-1.164,0.851-1.749,1.28c0.126,0.142,0.21,0.235,0.287,0.321c0.567-0.412,1.124-0.815,1.69-1.227
				C14.338,9.736,14.269,9.623,14.176,9.469z M13.848,33.579c0.636,0.35,1.257,0.689,1.89,1.039
				c0.075-0.172,0.125-0.283,0.174-0.397c-0.621-0.342-1.219-0.672-1.832-1.008C14.008,33.328,13.941,33.432,13.848,33.579z
				 M33.871,28.167c-0.387,0.604-0.754,1.176-1.129,1.765c0.1,0.074,0.207,0.153,0.35,0.262c0.389-0.611,0.77-1.206,1.158-1.816
				C34.096,28.291,33.986,28.23,33.871,28.167z M35.027,18.014c0.137,0.713,0.27,1.394,0.402,2.08
				c0.137-0.015,0.262-0.028,0.428-0.046c-0.139-0.722-0.271-1.42-0.41-2.14C35.273,17.953,35.154,17.981,35.027,18.014z
				 M26.092,34.747c-0.684,0.177-1.348,0.345-2.025,0.52c0.025,0.13,0.047,0.248,0.084,0.424c0.701-0.182,1.381-0.354,2.072-0.532
				C26.17,34.991,26.137,34.881,26.092,34.747z M11.371,11.742c-0.437,0.527-0.887,1.069-1.355,1.636
				c0.149,0.106,0.256,0.182,0.354,0.254c0.449-0.543,0.884-1.068,1.322-1.6C11.613,11.958,11.519,11.875,11.371,11.742z
				 M17.059,35.149c0.72,0.183,1.397,0.357,2.092,0.532c0.033-0.185,0.054-0.307,0.074-0.421c-0.681-0.177-1.343-0.345-2.02-0.521
				C17.163,34.857,17.121,34.974,17.059,35.149z M7.792,24.993c0.223,0.69,0.441,1.365,0.664,2.056
				c0.175-0.076,0.296-0.129,0.399-0.172c-0.218-0.677-0.429-1.323-0.644-1.985C8.093,24.92,7.972,24.95,7.792,24.993z
				 M27.377,34.244c0.057,0.118,0.111,0.236,0.186,0.397c0.646-0.356,1.262-0.696,1.891-1.041c-0.104-0.16-0.178-0.27-0.24-0.362
				C28.588,33.582,27.994,33.909,27.377,34.244z M22.387,7.806c0.682,0.085,1.361,0.171,2.057,0.257
				c0.021-0.138,0.041-0.261,0.066-0.425c-0.617-0.076-1.199-0.163-1.785-0.219C22.346,7.383,22.334,7.411,22.387,7.806z
				 M31.867,30.995c-0.512,0.476-1.014,0.948-1.533,1.435c0.086,0.104,0.168,0.206,0.277,0.337c0.533-0.504,1.047-0.985,1.566-1.477
				C32.047,31.166,31.953,31.077,31.867,30.995z M25.783,8.413c0.662,0.263,1.291,0.515,1.938,0.771
				c0.061-0.119,0.117-0.238,0.195-0.391C27.234,8.523,26.578,8.265,25.908,8C25.855,8.173,25.82,8.294,25.783,8.413z
				 M35.109,24.938c-0.217,0.665-0.428,1.308-0.646,1.973c0.117,0.049,0.234,0.101,0.398,0.172c0.229-0.69,0.449-1.358,0.674-2.05
				C35.363,24.993,35.232,24.965,35.109,24.938z M20.967,7.368c-0.731,0.095-1.425,0.182-2.152,0.275
				c0.044,0.186,0.073,0.31,0.098,0.421c0.712-0.09,1.383-0.177,2.055-0.263C20.967,7.687,20.967,7.57,20.967,7.368z M11.125,31.259
				c0.526,0.495,1.039,0.979,1.568,1.48c0.119-0.151,0.201-0.254,0.271-0.344c-0.516-0.484-1.014-0.951-1.522-1.425
				C11.349,31.054,11.257,31.137,11.125,31.259z M10.56,29.898c-0.383-0.604-0.746-1.178-1.118-1.766
				c-0.111,0.06-0.229,0.122-0.386,0.203c0.39,0.618,0.767,1.211,1.154,1.824C10.36,30.048,10.461,29.975,10.56,29.898z
				 M7.906,20.068c0.136-0.705,0.266-1.377,0.4-2.066c-0.134-0.028-0.262-0.055-0.427-0.091c-0.136,0.713-0.265,1.396-0.396,2.086
				C7.655,20.027,7.78,20.046,7.906,20.068z M7.812,21.46c-0.14,0-0.263,0-0.428,0c0.048,0.716,0.095,1.409,0.145,2.137
				c0.184-0.035,0.31-0.061,0.424-0.084C7.905,22.812,7.858,22.142,7.812,21.46z M35.512,21.501
				c-0.047,0.701-0.09,1.377-0.135,2.065c0.123,0.019,0.248,0.039,0.43,0.069c0.041-0.722,0.084-1.424,0.129-2.157
				C35.752,21.488,35.629,21.496,35.512,21.501z M20.606,35.439c-0.008,0.136-0.017,0.258-0.025,0.405c0.726,0,1.431,0,2.153,0
				c-0.021-0.162-0.043-0.292-0.057-0.405C21.976,35.439,21.307,35.439,20.606,35.439z"/>
			<path fill-rule="evenodd" clip-rule="evenodd" fill="#FFFFFF" d="M5.915,31.235c0.749-0.193,1.417-0.358,2.078-0.554
				c0.117-0.036,0.193-0.206,0.284-0.318c0.075-0.09,0.143-0.184,0.229-0.301c0.126,0.179,0.234,0.334,0.349,0.498
				c-0.582,0.789-1.154,1.567-1.765,2.396c0.489-0.147,0.923-0.278,1.357-0.41c0.381-0.116,0.768-0.224,1.144-0.357
				c0.234-0.086,0.397-0.068,0.503,0.178c0.033,0.073,0.088,0.136,0.155,0.238c-0.182,0.055-0.347,0.108-0.515,0.155
				c-1.015,0.288-2.032,0.572-3.045,0.863C6.521,33.676,6.413,33.67,6.3,33.505c-0.114-0.162-0.106-0.271,0.009-0.427
				c0.415-0.553,0.814-1.121,1.247-1.723c-0.487,0.12-0.936,0.232-1.385,0.348c-0.229,0.058-0.459,0.111-0.685,0.181
				c-0.188,0.063-0.288,0.002-0.403-0.154c-0.115-0.157-0.065-0.249,0.028-0.377c0.733-0.998,1.463-1.999,2.209-3.022
				c0.091,0.13,0.157,0.252,0.25,0.351c0.134,0.148,0.094,0.259-0.017,0.4c-0.512,0.653-1.013,1.314-1.52,1.973
				C6.007,31.088,5.985,31.126,5.915,31.235z"/>
			<path fill-rule="evenodd" clip-rule="evenodd" fill="#FFFFFF" d="M2.364,23.537c0-0.156,0.015-0.285-0.004-0.408
				c-0.029-0.202,0.076-0.267,0.246-0.314c0.857-0.24,1.713-0.488,2.628-0.753c-0.157-0.064-0.268-0.111-0.381-0.154
				c-0.262-0.105-0.526-0.202-0.787-0.311c-0.523-0.216-1.034-0.524-1.622-0.108c0-0.225-0.021-0.392,0.012-0.547
				c0.013-0.064,0.13-0.13,0.213-0.157c0.848-0.268,1.697-0.528,2.596-0.807c-0.101-0.043-0.161-0.074-0.223-0.097
				c-0.727-0.258-1.451-0.53-2.187-0.764c-0.278-0.088-0.393-0.216-0.34-0.499c0.015-0.069,0.01-0.144,0.016-0.25
				c0.356,0.133,0.695,0.258,1.032,0.385c0.817,0.309,1.632,0.62,2.45,0.923c0.147,0.054,0.249,0.1,0.236,0.293
				c-0.013,0.194-0.058,0.308-0.265,0.371c-0.668,0.197-1.329,0.417-2.034,0.641c0.677,0.275,1.316,0.53,1.951,0.795
				c0.118,0.049,0.293,0.039,0.27,0.271c-0.02,0.208-0.051,0.333-0.288,0.403c-1.115,0.332-2.221,0.69-3.331,1.04
				C2.502,23.505,2.45,23.517,2.364,23.537z"/>
			<path fill-rule="evenodd" clip-rule="evenodd" fill="#FFFFFF" d="M27.715,36.177c0.336,1.17,0.67,2.341,1.014,3.546
				c-0.184,0.058-0.357,0.114-0.568,0.182c-0.244-0.854-0.486-1.693-0.748-2.603c-0.168,0.564-0.336,1.062-0.459,1.571
				c-0.094,0.397-0.357,0.461-0.656,0.181c-0.391-0.364-0.816-0.691-1.271-1.07c0.256,0.896,0.496,1.74,0.742,2.598
				c-0.201,0.059-0.373,0.107-0.574,0.165c-0.342-1.202-0.68-2.385-1.016-3.562c0.334-0.191,0.594-0.191,0.885,0.084
				c0.449,0.427,0.943,0.801,1.439,1.211c0.174-0.591,0.371-1.164,0.508-1.75C27.098,36.344,27.303,36.176,27.715,36.177z"/>
			<path fill-rule="evenodd" clip-rule="evenodd" fill="#FFFFFF" d="M20.097,6.102c-0.207,0.045-0.375,0.083-0.581,0.13
				c-0.195-0.86-0.386-1.707-0.589-2.609c-0.057,0.135-0.099,0.225-0.134,0.32c-0.157,0.429-0.309,0.857-0.465,1.284
				c-0.105,0.288-0.306,0.335-0.526,0.13C17.384,4.964,16.963,4.573,16.5,4.14c0.2,0.903,0.389,1.753,0.583,2.632
				c-0.194,0.045-0.376,0.085-0.579,0.132c-0.272-1.212-0.54-2.41-0.807-3.604c0.449-0.218,0.507-0.211,0.841,0.102
				c0.463,0.437,0.928,0.872,1.4,1.316c0.212-0.582,0.454-1.141,0.618-1.723c0.106-0.382,0.329-0.505,0.728-0.513
				C19.552,3.671,19.821,4.87,20.097,6.102z"/>
			<path fill-rule="evenodd" clip-rule="evenodd" fill="#FFFFFF" d="M12.744,8.86c-0.168,0.145-0.304,0.261-0.457,0.394
				c-0.362-0.417-0.712-0.819-1.07-1.233c-0.479,0.414-0.94,0.811-1.413,1.219c0.353,0.411,0.694,0.812,1.057,1.236
				c-0.146,0.13-0.287,0.253-0.451,0.4c-0.812-0.943-1.619-1.88-2.438-2.833C8.125,7.91,8.265,7.786,8.425,7.645
				C8.77,8.041,9.102,8.424,9.455,8.83c0.47-0.403,0.932-0.797,1.415-1.212c-0.339-0.399-0.667-0.784-1.017-1.195
				c0.144-0.123,0.283-0.246,0.454-0.396C11.116,6.968,11.92,7.904,12.744,8.86z"/>
			<path fill-rule="evenodd" clip-rule="evenodd" fill="#FFFFFF" d="M17.431,38.86c-0.107,0.542-0.207,1.056-0.313,1.603
				c-0.195-0.038-0.376-0.072-0.589-0.111c0.234-1.229,0.465-2.43,0.7-3.663c0.195,0.037,0.377,0.072,0.589,0.11
				c-0.096,0.512-0.19,1.01-0.289,1.541c0.609,0.118,1.21,0.233,1.834,0.352c0.102-0.517,0.199-1.013,0.302-1.537
				c0.203,0.038,0.383,0.075,0.59,0.114c-0.237,1.231-0.468,2.436-0.702,3.659c-0.203-0.037-0.386-0.072-0.589-0.108
				c0.1-0.54,0.197-1.062,0.296-1.604C18.643,39.096,18.055,38.982,17.431,38.86z"/>
			<path fill-rule="evenodd" clip-rule="evenodd" fill="#FFFFFF" d="M36.578,26.363c0.164-0.648,0.32-1.27,0.48-1.893
				c0.441,0.145,0.475,0.203,0.371,0.626c-0.062,0.263-0.127,0.527-0.193,0.807c0.338,0.088,0.652,0.17,1,0.26
				c0.104-0.39,0.207-0.771,0.311-1.167c0.164,0.042,0.312,0.079,0.49,0.124c-0.094,0.388-0.184,0.765-0.283,1.172
				c0.363,0.093,0.717,0.182,1.088,0.275c0.121-0.463,0.232-0.892,0.354-1.351c0.16,0.041,0.316,0.081,0.496,0.127
				c-0.166,0.646-0.324,1.276-0.492,1.94C38.988,26.977,37.795,26.674,36.578,26.363z"/>
			<path fill-rule="evenodd" clip-rule="evenodd" fill="#FFFFFF" d="M13.71,8.3c-0.574-1.106-1.142-2.204-1.722-3.322
				c0.589-0.306,1.167-0.604,1.776-0.92c0.027,0.193,0.049,0.352,0.076,0.542c-0.345,0.182-0.696,0.368-1.071,0.565
				c0.158,0.307,0.309,0.6,0.474,0.921c0.363-0.185,0.709-0.36,1.08-0.548c0.077,0.153,0.149,0.295,0.232,0.459
				c-0.364,0.19-0.706,0.37-1.065,0.56c0.172,0.334,0.334,0.648,0.512,0.996c0.417-0.211,0.826-0.419,1.252-0.636
				c0.077,0.154,0.15,0.296,0.232,0.458C14.889,7.687,14.309,7.989,13.71,8.3z"/>
			<path fill-rule="evenodd" clip-rule="evenodd" fill="#FFFFFF" d="M21.326,40.958c-0.038-1.21-0.076-2.428-0.115-3.692
				c0.659,0,1.309,0,1.955,0c-0.055,0.442-0.066,0.45-0.488,0.473c-0.271,0.013-0.545,0.026-0.829,0.043c0,0.181,0,0.35,0,0.519
				c0,0.16,0,0.324,0,0.498c0.418,0,0.797,0,1.202,0c0,0.164,0,0.318,0,0.516c-0.371,0-0.752,0-1.143,0c0,0.397,0,0.757,0,1.137
				c0.344,0,0.659,0.012,0.973-0.002c0.475-0.018,0.475-0.023,0.428,0.51C22.662,40.958,22.014,40.958,21.326,40.958z"/>
			<path fill-rule="evenodd" clip-rule="evenodd" fill="#FFFFFF" d="M35.176,32.271c0.26-0.339,0.492-0.642,0.732-0.957
				c0.141,0.104,0.268,0.2,0.412,0.31c-0.242,0.323-0.475,0.634-0.727,0.965c0.438,0.331,0.861,0.656,1.299,0.99
				c-0.127,0.166-0.242,0.316-0.369,0.479c-0.99-0.752-1.969-1.495-2.973-2.258c0.4-0.533,0.797-1.052,1.209-1.6
				c0.107,0.156,0.201,0.293,0.307,0.451c-0.238,0.318-0.473,0.638-0.73,0.981C34.611,31.845,34.885,32.05,35.176,32.271z"/>
			<path fill-rule="evenodd" clip-rule="evenodd" fill="#FFFFFF" d="M24.68,2.571c0.229,0.055,0.4,0.079,0.559,0.141
				c0.061,0.025,0.111,0.129,0.133,0.207C25.527,3.458,25.67,4,25.826,4.561c0.326-0.363,0.643-0.713,0.959-1.063
				c0.354-0.392,0.352-0.394,0.898-0.171c-0.297,0.329-0.59,0.649-0.879,0.97c-0.242,0.262-0.49,0.517-0.723,0.785
				c-0.074,0.086-0.131,0.198-0.16,0.306c-0.109,0.405-0.201,0.811-0.305,1.249c-0.195-0.046-0.383-0.091-0.586-0.138
				c0.104-0.435,0.209-0.837,0.293-1.244c0.027-0.135,0.025-0.291-0.012-0.423C25.117,4.095,24.904,3.364,24.68,2.571z"/>
			<path fill-rule="evenodd" clip-rule="evenodd" fill="#FFFFFF" d="M30.828,5.279c-0.367-0.178-0.725-0.348-1.1-0.528
				c-0.16,0.323-0.309,0.623-0.467,0.939c0.359,0.183,0.703,0.36,1.072,0.547c-0.074,0.152-0.143,0.298-0.219,0.461
				c-0.359-0.176-0.705-0.348-1.08-0.532c-0.248,0.485-0.486,0.959-0.738,1.456c-0.182-0.091-0.348-0.176-0.535-0.27
				c0.557-1.123,1.105-2.226,1.662-3.342c0.604,0.299,1.188,0.588,1.803,0.894C31.076,5.045,30.953,5.16,30.828,5.279z"/>
			<path fill-rule="evenodd" clip-rule="evenodd" fill="#FFFFFF" d="M33.014,32.482c0.156,0.75,0.295,1.463,0.463,2.167
				c0.049,0.209,0.16,0.418,0.289,0.594c0.221,0.298,0.479,0.57,0.734,0.872c-0.15,0.136-0.295,0.26-0.453,0.397
				c-0.285-0.331-0.561-0.659-0.848-0.973c-0.096-0.101-0.223-0.189-0.35-0.237c-0.717-0.268-1.436-0.521-2.156-0.783
				c0.273-0.414,0.42-0.466,0.867-0.302c0.445,0.167,0.893,0.337,1.383,0.521c-0.115-0.518-0.209-0.996-0.334-1.469
				c-0.074-0.276-0.059-0.491,0.219-0.638C32.883,32.603,32.926,32.553,33.014,32.482z"/>
			<path fill-rule="evenodd" clip-rule="evenodd" fill="#FFFFFF" d="M35.607,29.857c-0.168-0.083-0.297-0.146-0.463-0.226
				c0.412-0.86,0.816-1.707,1.223-2.557c0.418,0.239,0.434,0.284,0.254,0.672c-0.086,0.188-0.172,0.375-0.27,0.589
				c0.965,0.466,1.914,0.921,2.893,1.39c-0.092,0.188-0.174,0.362-0.264,0.55c-0.971-0.465-1.92-0.919-2.895-1.387
				C35.928,29.207,35.773,29.52,35.607,29.857z"/>
			<path fill-rule="evenodd" clip-rule="evenodd" fill="#FFFFFF" d="M38.182,12.821c-0.166-0.326-0.32-0.631-0.484-0.957
				c0.15-0.081,0.291-0.157,0.459-0.248c0.434,0.854,0.861,1.694,1.295,2.542c-0.033,0.02-0.055,0.041-0.076,0.043
				c-0.445,0.074-0.443,0.072-0.66-0.345c-0.078-0.152-0.16-0.304-0.256-0.488c-0.953,0.485-1.898,0.967-2.865,1.461
				c-0.092-0.181-0.176-0.349-0.271-0.543C36.275,13.798,37.217,13.313,38.182,12.821z"/>
			<path fill-rule="evenodd" clip-rule="evenodd" fill="#FFFFFF" d="M37.334,20.96c0.479,0.055,0.516,0.1,0.494,0.518
				c-0.012,0.207-0.002,0.414-0.002,0.649c1.051,0.052,2.102,0.105,3.156,0.156c0,0.207,0,0.387,0,0.6
				c-1.08-0.048-2.143-0.097-3.213-0.144c-0.02,0.37-0.035,0.704-0.055,1.048c-0.174,0-0.326,0-0.514,0
				C37.246,22.838,37.289,21.9,37.334,20.96z"/>
			<path fill-rule="evenodd" clip-rule="evenodd" fill="#FFFFFF" d="M12.338,34.179c0.175,0.117,0.326,0.218,0.499,0.333
				c-0.596,0.894-1.184,1.779-1.78,2.675c0.384,0.257,0.751,0.505,1.128,0.758c-0.101,0.152-0.186,0.279-0.286,0.43
				c-0.541-0.359-1.075-0.716-1.633-1.086C10.958,36.248,11.639,35.228,12.338,34.179z"/>
			<path fill-rule="evenodd" clip-rule="evenodd" fill="#FFFFFF" d="M9.387,11.288c0.145,0.107,0.273,0.202,0.416,0.307
				c-0.386,0.533-0.762,1.053-1.149,1.587c-1.011-0.731-2.003-1.451-3.023-2.189c0.11-0.157,0.217-0.308,0.344-0.489
				c0.873,0.631,1.732,1.251,2.607,1.883C8.85,12.02,9.112,11.662,9.387,11.288z"/>
			<path fill-rule="evenodd" clip-rule="evenodd" fill="#FFFFFF" d="M7.661,13.782c0.172,0.082,0.311,0.147,0.466,0.221
				c-0.277,0.592-0.545,1.164-0.831,1.772c-1.128-0.529-2.241-1.051-3.381-1.586c0.087-0.188,0.164-0.356,0.25-0.542
				c0.981,0.459,1.94,0.907,2.912,1.363C7.278,14.59,7.464,14.2,7.661,13.782z"/>
			<path fill-rule="evenodd" clip-rule="evenodd" fill="#FFFFFF" d="M32.195,37.916c-0.58,0.326-1.133,0.637-1.709,0.965
				c-0.613-1.084-1.217-2.156-1.838-3.254c0.176-0.101,0.34-0.193,0.521-0.298c0.529,0.936,1.045,1.853,1.58,2.798
				c0.398-0.222,0.781-0.432,1.189-0.658C32.023,37.616,32.1,37.747,32.195,37.916z"/>
			<path fill-rule="evenodd" clip-rule="evenodd" fill="#FFFFFF" d="M15.22,39.368c-0.074,0.165-0.136,0.307-0.208,0.471
				c-0.6-0.26-1.18-0.513-1.795-0.779c0.499-1.146,0.989-2.274,1.49-3.424c0.185,0.08,0.354,0.153,0.549,0.235
				c-0.428,0.985-0.847,1.949-1.281,2.948C14.384,38.998,14.787,39.177,15.22,39.368z"/>
			<path fill-rule="evenodd" clip-rule="evenodd" fill="#FFFFFF" d="M21.352,6.125c0.04-1.28,0.078-2.505,0.115-3.701
				c0.044-0.031,0.05-0.041,0.058-0.041c0.536-0.017,0.528-0.017,0.524,0.517c-0.008,0.891-0.004,1.783-0.004,2.706
				c0.379,0.02,0.818,0.043,1.289,0.067c-0.014,0.167-0.023,0.317-0.031,0.452C22.652,6.125,22.027,6.125,21.352,6.125z"/>
			<path fill-rule="evenodd" clip-rule="evenodd" fill="#FFFFFF" d="M8.899,36.176c-0.155-0.138-0.297-0.264-0.454-0.401
				c0.842-0.932,1.67-1.846,2.512-2.776c0.155,0.141,0.292,0.269,0.443,0.41C10.569,34.328,9.746,35.238,8.899,36.176z"/>
			<path fill-rule="evenodd" clip-rule="evenodd" fill="#FFFFFF" d="M6.855,17.05c-0.056,0.199-0.105,0.369-0.167,0.578
				c-1.197-0.345-2.38-0.686-3.585-1.034c0.058-0.203,0.109-0.382,0.167-0.581C4.473,16.361,5.655,16.703,6.855,17.05z"/>
			<path fill-rule="evenodd" clip-rule="evenodd" fill="#FFFFFF" d="M5.497,26.649c0.006,0.347-0.278,0.635-0.639,0.645
				c-0.343,0.009-0.63-0.26-0.641-0.602c-0.011-0.365,0.271-0.647,0.651-0.649C5.229,26.04,5.49,26.289,5.497,26.649z"/>
			<path fill-rule="evenodd" clip-rule="evenodd" fill="#FFFFFF" d="M39.471,18.005c-0.01,0.363-0.279,0.615-0.664,0.609
				c-0.361-0.006-0.623-0.268-0.617-0.623s0.285-0.61,0.666-0.606C39.223,17.388,39.477,17.645,39.471,18.005z"/>
			<path fill-rule="evenodd" clip-rule="evenodd" fill="#FFFFFF" d="M17.559,8.412c-0.649,0.257-1.28,0.507-1.935,0.765
				c-0.055-0.107-0.117-0.224-0.202-0.388c0.678-0.267,1.332-0.525,2.011-0.792C17.484,8.165,17.522,8.292,17.559,8.412z"/>
			<path fill-rule="evenodd" clip-rule="evenodd" fill="#FFFFFF" d="M33.693,14.816c0.117-0.065,0.236-0.133,0.396-0.225
				c0.307,0.652,0.607,1.288,0.914,1.945c-0.162,0.066-0.277,0.114-0.396,0.162c-0.305-0.637-0.607-1.262-0.908-1.888L33.693,14.816
				z"/>
			<path fill-rule="evenodd" clip-rule="evenodd" fill="#FFFFFF" d="M9.25,14.582c0.157,0.092,0.272,0.157,0.377,0.219
				c-0.299,0.633-0.588,1.247-0.891,1.888c-0.117-0.045-0.239-0.094-0.406-0.156C8.641,15.872,8.941,15.236,9.25,14.582z"/>
			<path fill-rule="evenodd" clip-rule="evenodd" fill="#FFFFFF" d="M14.176,9.469c0.093,0.154,0.163,0.267,0.228,0.374
				c-0.566,0.412-1.123,0.815-1.69,1.227c-0.077-0.086-0.16-0.179-0.287-0.321C13.012,10.319,13.583,9.903,14.176,9.469z"/>
			<path fill-rule="evenodd" clip-rule="evenodd" fill="#FFFFFF" d="M13.848,33.579c0.093-0.147,0.16-0.251,0.232-0.366
				c0.613,0.336,1.211,0.666,1.832,1.008c-0.049,0.114-0.099,0.226-0.174,0.397C15.105,34.269,14.484,33.929,13.848,33.579z"/>
			<path fill-rule="evenodd" clip-rule="evenodd" fill="#FFFFFF" d="M33.871,28.167c0.115,0.063,0.225,0.124,0.379,0.21
				c-0.389,0.61-0.77,1.205-1.158,1.816c-0.143-0.108-0.25-0.188-0.35-0.262C33.117,29.343,33.484,28.771,33.871,28.167z"/>
			<path fill-rule="evenodd" clip-rule="evenodd" fill="#FFFFFF" d="M35.027,18.014c0.127-0.033,0.246-0.062,0.42-0.106
				c0.139,0.72,0.271,1.418,0.41,2.14c-0.166,0.018-0.291,0.031-0.428,0.046C35.297,19.408,35.164,18.728,35.027,18.014z"/>
			<path fill-rule="evenodd" clip-rule="evenodd" fill="#FFFFFF" d="M26.092,34.747c0.045,0.134,0.078,0.244,0.131,0.411
				c-0.691,0.179-1.371,0.351-2.072,0.532c-0.037-0.176-0.059-0.294-0.084-0.424C24.744,35.092,25.408,34.924,26.092,34.747z"/>
			<path fill-rule="evenodd" clip-rule="evenodd" fill="#FFFFFF" d="M11.371,11.742c0.147,0.134,0.242,0.216,0.321,0.29
				c-0.438,0.532-0.873,1.057-1.322,1.6c-0.099-0.072-0.206-0.148-0.354-0.254C10.484,12.811,10.934,12.269,11.371,11.742z"/>
			<path fill-rule="evenodd" clip-rule="evenodd" fill="#FFFFFF" d="M17.059,35.149c0.062-0.176,0.104-0.292,0.147-0.41
				c0.676,0.177,1.339,0.345,2.02,0.521c-0.021,0.114-0.041,0.236-0.074,0.421C18.456,35.507,17.779,35.332,17.059,35.149z"/>
			<path fill-rule="evenodd" clip-rule="evenodd" fill="#FFFFFF" d="M7.792,24.993c0.18-0.043,0.3-0.073,0.419-0.102
				c0.215,0.662,0.426,1.309,0.644,1.985c-0.104,0.043-0.224,0.096-0.399,0.172C8.233,26.358,8.015,25.684,7.792,24.993z"/>
			<path fill-rule="evenodd" clip-rule="evenodd" fill="#FFFFFF" d="M27.377,34.244c0.617-0.335,1.211-0.662,1.836-1.006
				c0.062,0.093,0.137,0.202,0.24,0.362c-0.629,0.345-1.244,0.685-1.891,1.041C27.488,34.48,27.434,34.362,27.377,34.244z"/>
			<path fill-rule="evenodd" clip-rule="evenodd" fill="#FFFFFF" d="M22.387,7.806c-0.053-0.395-0.041-0.423,0.338-0.387
				c0.586,0.057,1.168,0.143,1.785,0.219c-0.025,0.164-0.045,0.287-0.066,0.425C23.748,7.978,23.068,7.891,22.387,7.806z"/>
			<path fill-rule="evenodd" clip-rule="evenodd" fill="#FFFFFF" d="M31.867,30.995c0.086,0.082,0.18,0.171,0.311,0.295
				c-0.52,0.491-1.033,0.973-1.566,1.477c-0.109-0.131-0.191-0.233-0.277-0.337C30.854,31.943,31.355,31.471,31.867,30.995z"/>
			<path fill-rule="evenodd" clip-rule="evenodd" fill="#FFFFFF" d="M25.783,8.413C25.82,8.294,25.855,8.173,25.908,8
				c0.67,0.265,1.326,0.523,2.008,0.794c-0.078,0.152-0.135,0.271-0.195,0.391C27.074,8.928,26.445,8.676,25.783,8.413z"/>
			<path fill-rule="evenodd" clip-rule="evenodd" fill="#FFFFFF" d="M35.109,24.938c0.123,0.027,0.254,0.056,0.426,0.095
				c-0.225,0.691-0.445,1.359-0.674,2.05c-0.164-0.071-0.281-0.123-0.398-0.172C34.682,26.245,34.893,25.603,35.109,24.938z"/>
			<path fill-rule="evenodd" clip-rule="evenodd" fill="#FFFFFF" d="M20.967,7.368c0,0.202,0,0.319,0,0.434
				c-0.671,0.086-1.343,0.172-2.055,0.263c-0.024-0.112-0.053-0.235-0.098-0.421C19.542,7.55,20.235,7.463,20.967,7.368z"/>
			<path fill-rule="evenodd" clip-rule="evenodd" fill="#FFFFFF" d="M11.125,31.259c0.132-0.122,0.225-0.205,0.317-0.288
				c0.509,0.474,1.006,0.94,1.522,1.425c-0.071,0.09-0.153,0.192-0.271,0.344C12.163,32.238,11.651,31.754,11.125,31.259z"/>
			<path fill-rule="evenodd" clip-rule="evenodd" fill="#FFFFFF" d="M10.56,29.898c-0.099,0.076-0.2,0.149-0.349,0.262
				c-0.387-0.613-0.764-1.206-1.154-1.824c0.156-0.081,0.274-0.144,0.386-0.203C9.814,28.721,10.177,29.295,10.56,29.898z"/>
			<path fill-rule="evenodd" clip-rule="evenodd" fill="#FFFFFF" d="M7.906,20.068c-0.125-0.021-0.25-0.041-0.423-0.071
				c0.131-0.69,0.261-1.373,0.396-2.086c0.165,0.036,0.292,0.062,0.427,0.091C8.171,18.691,8.042,19.363,7.906,20.068z"/>
			<path fill-rule="evenodd" clip-rule="evenodd" fill="#FFFFFF" d="M7.812,21.46c0.047,0.682,0.093,1.352,0.141,2.053
				c-0.114,0.023-0.24,0.049-0.424,0.084c-0.05-0.728-0.097-1.421-0.145-2.137C7.549,21.46,7.672,21.46,7.812,21.46z"/>
			<path fill-rule="evenodd" clip-rule="evenodd" fill="#FFFFFF" d="M35.512,21.501c0.117-0.006,0.24-0.013,0.424-0.023
				c-0.045,0.733-0.088,1.436-0.129,2.157c-0.182-0.03-0.307-0.051-0.43-0.069C35.422,22.879,35.465,22.202,35.512,21.501z"/>
			<path fill-rule="evenodd" clip-rule="evenodd" fill="#FFFFFF" d="M20.606,35.439c0.701,0,1.37,0,2.072,0
				c0.014,0.113,0.035,0.243,0.057,0.405c-0.723,0-1.428,0-2.153,0C20.589,35.697,20.598,35.575,20.606,35.439z"/>
		</g>
	</g>
</g>
</svg>
